G04 MADE WITH FRITZING*
G04 WWW.FRITZING.ORG*
G04 DOUBLE SIDED*
G04 HOLES PLATED*
G04 CONTOUR ON CENTER OF CONTOUR VECTOR*
%ASAXBY*%
%FSLAX23Y23*%
%MOIN*%
%OFA0B0*%
%SFA1.0B1.0*%
%ADD10C,0.085000*%
%ADD11C,0.049370*%
%ADD12C,0.090000*%
%ADD13C,0.080000*%
%ADD14C,0.088000*%
%ADD15R,0.085000X0.085000*%
%ADD16R,0.090000X0.090000*%
%LNMASK1*%
G90*
G70*
G54D10*
X504Y1738D03*
X504Y2038D03*
X604Y1738D03*
X604Y2038D03*
X704Y1738D03*
X704Y2038D03*
X804Y1738D03*
X804Y2038D03*
X904Y1738D03*
X904Y2038D03*
X1004Y1738D03*
X1004Y2038D03*
X1104Y1738D03*
X1104Y2038D03*
X1204Y1738D03*
X1204Y2038D03*
X1304Y1738D03*
X1304Y2038D03*
G54D11*
X1004Y1087D03*
G54D12*
X504Y2488D03*
X642Y2488D03*
X779Y2488D03*
X917Y2488D03*
X1055Y2488D03*
X1193Y2488D03*
X1331Y2488D03*
X1468Y2488D03*
G54D13*
X1404Y1988D03*
X1404Y1888D03*
G54D14*
X1504Y1538D03*
X1504Y1438D03*
G54D12*
X854Y338D03*
X716Y338D03*
G54D14*
X454Y888D03*
X554Y888D03*
X654Y888D03*
X754Y888D03*
X854Y888D03*
X954Y888D03*
X454Y888D03*
X554Y888D03*
X654Y888D03*
X754Y888D03*
X854Y888D03*
X954Y888D03*
X954Y988D03*
X854Y988D03*
X754Y988D03*
X654Y988D03*
X554Y988D03*
X454Y988D03*
G54D12*
X504Y338D03*
X366Y338D03*
X228Y338D03*
X1354Y338D03*
X1216Y338D03*
X1078Y338D03*
X154Y1838D03*
X154Y1976D03*
X154Y2113D03*
X154Y2251D03*
X154Y2389D03*
X154Y2527D03*
G54D15*
X504Y1738D03*
G54D16*
X504Y2488D03*
X854Y338D03*
X504Y338D03*
X1354Y338D03*
X154Y1838D03*
G04 End of Mask1*
M02*