; NON-PLATED HOLES START AT T1
; THROUGH (PLATED) HOLES START AT T100
M48
INCH
T100C0.040000
T101C0.015748
T102C0.030000
T103C0.035000
T104C0.038000
%
T100
X001538Y018378
X013537Y003378
X007793Y024878
X001538Y019756
X003660Y003378
X005037Y003378
X006415Y024878
X001538Y025267
X013305Y024878
X001538Y023890
X009171Y024878
X002282Y003378
X005037Y024878
X007160Y003378
X008537Y003378
X014683Y024878
X010549Y024878
X010782Y003378
X001538Y021134
X012160Y003378
X001538Y022512
X011927Y024878
T101
X010043Y010867
T102
X014038Y019878
X014038Y018876
T103
X008038Y017378
X010038Y020378
X009038Y017378
X011038Y020378
X012038Y020378
X010038Y017378
X011038Y017378
X012038Y017378
X013038Y020378
X013038Y017378
X005038Y020378
X006038Y020378
X005038Y017378
X006038Y017378
X007038Y020378
X008038Y020378
X009038Y020378
X007038Y017378
T104
X007538Y008878
X006538Y008878
X009538Y009878
X008538Y009878
X004538Y008878
X005538Y009878
X009538Y008878
X008538Y008878
X015038Y015378
X005538Y008878
X007538Y009878
X006538Y009878
X004538Y009878
X015038Y014378
T00
M30
