G04 MADE WITH FRITZING*
G04 WWW.FRITZING.ORG*
G04 DOUBLE SIDED*
G04 HOLES PLATED*
G04 CONTOUR ON CENTER OF CONTOUR VECTOR*
%ASAXBY*%
%FSLAX23Y23*%
%MOIN*%
%OFA0B0*%
%SFA1.0B1.0*%
%ADD10C,0.075000*%
%ADD11C,0.039370*%
%ADD12C,0.080000*%
%ADD13C,0.070000*%
%ADD14C,0.078000*%
%ADD15R,0.075000X0.075000*%
%ADD16R,0.080000X0.080000*%
%ADD17C,0.024000*%
%LNCOPPER1*%
G90*
G70*
G54D10*
X504Y1738D03*
X504Y2038D03*
X604Y1738D03*
X604Y2038D03*
X704Y1738D03*
X704Y2038D03*
X804Y1738D03*
X804Y2038D03*
X904Y1738D03*
X904Y2038D03*
X1004Y1738D03*
X1004Y2038D03*
X1104Y1738D03*
X1104Y2038D03*
X1204Y1738D03*
X1204Y2038D03*
X1304Y1738D03*
X1304Y2038D03*
G54D11*
X1004Y1087D03*
G54D12*
X504Y2488D03*
X642Y2488D03*
X779Y2488D03*
X917Y2488D03*
X1055Y2488D03*
X1193Y2488D03*
X1331Y2488D03*
X1468Y2488D03*
G54D13*
X1404Y1988D03*
X1404Y1888D03*
G54D14*
X1504Y1538D03*
X1504Y1438D03*
G54D12*
X854Y338D03*
X716Y338D03*
G54D14*
X454Y888D03*
X554Y888D03*
X654Y888D03*
X754Y888D03*
X854Y888D03*
X954Y888D03*
X454Y888D03*
X554Y888D03*
X654Y888D03*
X754Y888D03*
X854Y888D03*
X954Y888D03*
X954Y988D03*
X854Y988D03*
X754Y988D03*
X654Y988D03*
X554Y988D03*
X454Y988D03*
G54D12*
X504Y338D03*
X366Y338D03*
X228Y338D03*
X1354Y338D03*
X1216Y338D03*
X1078Y338D03*
X154Y1838D03*
X154Y1976D03*
X154Y2113D03*
X154Y2251D03*
X154Y2389D03*
X154Y2527D03*
G54D15*
X504Y1738D03*
G54D16*
X504Y2488D03*
X854Y338D03*
X504Y338D03*
X1354Y338D03*
X154Y1838D03*
G54D17*
X753Y738D02*
X1105Y738D01*
D02*
X1105Y738D02*
X1105Y1187D01*
D02*
X1105Y1187D02*
X503Y1187D01*
D02*
X503Y1187D02*
X504Y1709D01*
D02*
X754Y858D02*
X753Y738D01*
D02*
X985Y1087D02*
X553Y1087D01*
D02*
X553Y1087D02*
X553Y1018D01*
D02*
X355Y889D02*
X424Y888D01*
D02*
X355Y1837D02*
X355Y889D01*
D02*
X1303Y1837D02*
X355Y1837D01*
D02*
X1303Y1766D02*
X1303Y1837D01*
D02*
X1132Y1738D02*
X1175Y1738D01*
D02*
X1032Y1738D02*
X1075Y1738D01*
D02*
X932Y1738D02*
X975Y1738D01*
D02*
X832Y1738D02*
X875Y1738D01*
D02*
X732Y1738D02*
X775Y1738D01*
D02*
X632Y1738D02*
X675Y1738D01*
D02*
X575Y1738D02*
X532Y1738D01*
D02*
X1332Y2038D02*
X1404Y2037D01*
D02*
X1404Y2037D02*
X1404Y2014D01*
D02*
X1404Y1862D02*
X1404Y1739D01*
D02*
X1404Y1739D02*
X1332Y1738D01*
D02*
X1252Y1538D02*
X1474Y1538D01*
D02*
X1253Y638D02*
X1252Y1538D01*
D02*
X715Y369D02*
X704Y636D01*
D02*
X704Y636D02*
X1253Y638D01*
D02*
X1353Y1438D02*
X1474Y1438D01*
D02*
X1353Y588D02*
X1353Y1438D01*
D02*
X854Y369D02*
X856Y588D01*
D02*
X856Y588D02*
X1353Y588D01*
D02*
X553Y788D02*
X554Y858D01*
D02*
X204Y788D02*
X553Y788D01*
D02*
X254Y1689D02*
X204Y1689D01*
D02*
X204Y1689D02*
X204Y788D01*
D02*
X254Y1937D02*
X254Y1689D01*
D02*
X183Y1964D02*
X254Y1937D01*
D02*
X653Y738D02*
X654Y858D01*
D02*
X154Y738D02*
X653Y738D01*
D02*
X154Y1807D02*
X154Y738D01*
G04 End of Copper1*
M02*