G04 MADE WITH FRITZING*
G04 WWW.FRITZING.ORG*
G04 DOUBLE SIDED*
G04 HOLES PLATED*
G04 CONTOUR ON CENTER OF CONTOUR VECTOR*
%ASAXBY*%
%FSLAX23Y23*%
%MOIN*%
%OFA0B0*%
%SFA1.0B1.0*%
%ADD10C,0.078000*%
%ADD11C,0.080000*%
%ADD12R,0.080000X0.080000*%
%ADD13C,0.024000*%
%LNCOPPER0*%
G90*
G70*
G54D10*
X1254Y1519D03*
X1354Y1519D03*
G54D11*
X804Y319D03*
X666Y319D03*
G54D10*
X454Y869D03*
X554Y869D03*
X654Y869D03*
X754Y869D03*
X854Y869D03*
X954Y869D03*
X454Y869D03*
X554Y869D03*
X654Y869D03*
X754Y869D03*
X854Y869D03*
X954Y869D03*
X954Y969D03*
X854Y969D03*
X754Y969D03*
X654Y969D03*
X554Y969D03*
X454Y969D03*
G54D11*
X454Y319D03*
X316Y319D03*
X178Y319D03*
X1304Y319D03*
X1166Y319D03*
X1028Y319D03*
X404Y1319D03*
X542Y1319D03*
X679Y1319D03*
X817Y1319D03*
X955Y1319D03*
X1093Y1319D03*
G54D12*
X804Y319D03*
X454Y319D03*
X1304Y319D03*
X404Y1319D03*
G54D13*
X454Y671D02*
X454Y839D01*
D02*
X454Y351D02*
X454Y671D01*
D02*
X318Y350D02*
X355Y969D01*
D02*
X355Y969D02*
X424Y969D01*
D02*
X179Y351D02*
X203Y1071D01*
D02*
X203Y1071D02*
X555Y1071D01*
D02*
X555Y1071D02*
X554Y1000D01*
D02*
X755Y719D02*
X754Y839D01*
D02*
X1004Y719D02*
X755Y719D01*
D02*
X1026Y350D02*
X1004Y719D01*
D02*
X855Y771D02*
X854Y839D01*
D02*
X1153Y771D02*
X855Y771D01*
D02*
X1165Y351D02*
X1153Y771D01*
D02*
X1304Y619D02*
X1304Y871D01*
D02*
X1304Y871D02*
X984Y870D01*
D02*
X1304Y351D02*
X1304Y619D01*
D02*
X1072Y1296D02*
X955Y1169D01*
D02*
X955Y1169D02*
X954Y1000D01*
D02*
X854Y1169D02*
X854Y1000D01*
D02*
X938Y1294D02*
X854Y1169D01*
D02*
X755Y1169D02*
X754Y1000D01*
D02*
X805Y1291D02*
X755Y1169D01*
D02*
X677Y1288D02*
X656Y999D01*
G04 End of Copper0*
M02*