G04 MADE WITH FRITZING*
G04 WWW.FRITZING.ORG*
G04 DOUBLE SIDED*
G04 HOLES PLATED*
G04 CONTOUR ON CENTER OF CONTOUR VECTOR*
%ASAXBY*%
%FSLAX23Y23*%
%MOIN*%
%OFA0B0*%
%SFA1.0B1.0*%
%ADD10C,0.078000*%
%ADD11C,0.080000*%
%ADD12R,0.080000X0.080000*%
%ADD13C,0.024000*%
%LNCOPPER1*%
G90*
G70*
G54D10*
X1254Y1519D03*
X1354Y1519D03*
G54D11*
X804Y319D03*
X666Y319D03*
G54D10*
X454Y869D03*
X554Y869D03*
X654Y869D03*
X754Y869D03*
X854Y869D03*
X954Y869D03*
X454Y869D03*
X554Y869D03*
X654Y869D03*
X754Y869D03*
X854Y869D03*
X954Y869D03*
X954Y969D03*
X854Y969D03*
X754Y969D03*
X654Y969D03*
X554Y969D03*
X454Y969D03*
G54D11*
X454Y319D03*
X316Y319D03*
X178Y319D03*
X1304Y319D03*
X1166Y319D03*
X1028Y319D03*
X404Y1319D03*
X542Y1319D03*
X679Y1319D03*
X817Y1319D03*
X955Y1319D03*
X1093Y1319D03*
G54D12*
X804Y319D03*
X454Y319D03*
X1304Y319D03*
X404Y1319D03*
G54D13*
X1253Y619D02*
X1254Y1489D01*
D02*
X665Y351D02*
X655Y619D01*
D02*
X655Y619D02*
X1253Y619D01*
D02*
X1353Y519D02*
X1354Y1489D01*
D02*
X804Y351D02*
X803Y519D01*
D02*
X803Y519D02*
X1353Y519D01*
D02*
X555Y769D02*
X554Y839D01*
D02*
X355Y769D02*
X555Y769D01*
D02*
X355Y1119D02*
X355Y769D01*
D02*
X555Y1119D02*
X355Y1119D01*
D02*
X544Y1288D02*
X555Y1119D01*
D02*
X654Y718D02*
X654Y839D01*
D02*
X303Y719D02*
X654Y718D01*
D02*
X303Y1168D02*
X303Y719D01*
D02*
X403Y1169D02*
X303Y1168D01*
D02*
X404Y1288D02*
X403Y1169D01*
G04 End of Copper1*
M02*