; NON-PLATED HOLES START AT T1
; THROUGH (PLATED) HOLES START AT T100
M48
INCH
T100C0.040000
T101C0.038000
%
T100
X001782Y003194
X006793Y013194
X008037Y003194
X010282Y003194
X011660Y003194
X003160Y003194
X010927Y013194
X008171Y013194
X004537Y003194
X009549Y013194
X004038Y013194
X013037Y003194
X006660Y003194
X005415Y013194
T101
X007538Y008694
X009538Y009694
X004538Y008694
X006538Y009694
X005538Y009694
X009538Y008694
X006538Y008694
X005538Y008694
X008538Y009694
X007538Y009694
X013538Y015194
X012538Y015194
X004538Y009694
X008538Y008694
T00
M30
