G04 MADE WITH FRITZING*
G04 WWW.FRITZING.ORG*
G04 DOUBLE SIDED*
G04 HOLES PLATED*
G04 CONTOUR ON CENTER OF CONTOUR VECTOR*
%ASAXBY*%
%FSLAX23Y23*%
%MOIN*%
%OFA0B0*%
%SFA1.0B1.0*%
%ADD10C,0.075000*%
%ADD11C,0.039370*%
%ADD12C,0.080000*%
%ADD13C,0.070000*%
%ADD14C,0.078000*%
%ADD15R,0.075000X0.075000*%
%ADD16R,0.080000X0.080000*%
%ADD17C,0.024000*%
%LNCOPPER0*%
G90*
G70*
G54D10*
X504Y1738D03*
X504Y2038D03*
X604Y1738D03*
X604Y2038D03*
X704Y1738D03*
X704Y2038D03*
X804Y1738D03*
X804Y2038D03*
X904Y1738D03*
X904Y2038D03*
X1004Y1738D03*
X1004Y2038D03*
X1104Y1738D03*
X1104Y2038D03*
X1204Y1738D03*
X1204Y2038D03*
X1304Y1738D03*
X1304Y2038D03*
G54D11*
X1004Y1087D03*
G54D12*
X504Y2488D03*
X642Y2488D03*
X779Y2488D03*
X917Y2488D03*
X1055Y2488D03*
X1193Y2488D03*
X1331Y2488D03*
X1468Y2488D03*
G54D13*
X1404Y1988D03*
X1404Y1888D03*
G54D14*
X1504Y1538D03*
X1504Y1438D03*
G54D12*
X854Y338D03*
X716Y338D03*
G54D14*
X454Y888D03*
X554Y888D03*
X654Y888D03*
X754Y888D03*
X854Y888D03*
X954Y888D03*
X454Y888D03*
X554Y888D03*
X654Y888D03*
X754Y888D03*
X854Y888D03*
X954Y888D03*
X954Y988D03*
X854Y988D03*
X754Y988D03*
X654Y988D03*
X554Y988D03*
X454Y988D03*
G54D12*
X504Y338D03*
X366Y338D03*
X228Y338D03*
X1354Y338D03*
X1216Y338D03*
X1078Y338D03*
X154Y1838D03*
X154Y1976D03*
X154Y2113D03*
X154Y2251D03*
X154Y2389D03*
X154Y2527D03*
G54D15*
X504Y1738D03*
G54D16*
X504Y2488D03*
X854Y338D03*
X504Y338D03*
X1354Y338D03*
X154Y1838D03*
G54D17*
X1155Y1588D02*
X1155Y1087D01*
D02*
X1155Y1087D02*
X1023Y1087D01*
D02*
X1404Y1588D02*
X1155Y1588D01*
D02*
X1503Y1739D02*
X1404Y1739D01*
D02*
X1404Y1739D02*
X1404Y1588D01*
D02*
X1503Y2136D02*
X1503Y1739D01*
D02*
X1353Y2136D02*
X1503Y2136D01*
D02*
X1316Y2063D02*
X1353Y2136D01*
D02*
X504Y2457D02*
X504Y2066D01*
D02*
X639Y2457D02*
X606Y2066D01*
D02*
X774Y2457D02*
X709Y2066D01*
D02*
X910Y2458D02*
X811Y2066D01*
D02*
X1045Y2458D02*
X913Y2065D01*
D02*
X1181Y2459D02*
X1015Y2064D01*
D02*
X1317Y2460D02*
X1117Y2063D01*
D02*
X1453Y2461D02*
X1218Y2062D01*
D02*
X501Y369D02*
X457Y858D01*
D02*
X366Y369D02*
X356Y988D01*
D02*
X356Y988D02*
X424Y988D01*
D02*
X229Y369D02*
X256Y1088D01*
D02*
X256Y1088D02*
X555Y1089D01*
D02*
X555Y1089D02*
X554Y1018D01*
D02*
X755Y738D02*
X754Y858D01*
D02*
X1056Y736D02*
X755Y738D01*
D02*
X1076Y369D02*
X1056Y736D01*
D02*
X855Y789D02*
X854Y858D01*
D02*
X1204Y788D02*
X855Y789D01*
D02*
X1215Y369D02*
X1204Y788D01*
D02*
X1356Y888D02*
X984Y888D01*
D02*
X1354Y369D02*
X1356Y888D01*
D02*
X405Y1287D02*
X954Y1287D01*
D02*
X405Y2439D02*
X405Y1287D01*
D02*
X183Y2516D02*
X405Y2439D01*
D02*
X954Y1287D02*
X954Y1018D01*
D02*
X854Y1237D02*
X854Y1018D01*
D02*
X355Y1237D02*
X854Y1237D01*
D02*
X355Y2338D02*
X355Y1237D01*
D02*
X184Y2381D02*
X355Y2338D01*
D02*
X755Y1188D02*
X754Y1018D01*
D02*
X305Y1187D02*
X755Y1188D01*
D02*
X305Y2188D02*
X305Y1187D01*
D02*
X182Y2239D02*
X305Y2188D01*
D02*
X653Y1137D02*
X654Y1018D01*
D02*
X254Y1137D02*
X653Y1137D01*
D02*
X254Y2087D02*
X254Y1137D01*
D02*
X184Y2106D02*
X254Y2087D01*
G04 End of Copper0*
M02*